# xmcd
#
# Track frame offsets:
#	150
#	14560
#	33600
#	49235
#	68292
#	85097
#	103285
#	130085
#	145435
#	166909
#	184165
#	198875
#	216077
#	243020
#
# Disc length: 3472 seconds
#
# Revision: 1
# Processed by: cddbd v1.5.1PL0 Copyright (c) Steve Scherf et al.
# Submitted via: EasyCDDAExtractor 7.0.6.1
#
DISCID=c00d8e0e
DTITLE=Walkin" Cane Mark - No Rest For The Wicked
DYEAR=1996
DGENRE=Blues
TTITLE0=No Rest For The Wicked
TTITLE1=Blues For Generation X
TTITLE2=$40 In The Hole
TTITLE3=The Devil's At Your Door
TTITLE4=A Man and 1/2
TTITLE5=Hoodoo Man Blues
TTITLE6=You Can't Keep Her Long
TTITLE7=My Baby Don't Give Me No Lovin'
TTITLE8=Back Door Man
TTITLE9=Untamed Harp
TTITLE10=Same Old Blues
TTITLE11=Hello Little Baby
TTITLE12=The Wolf In The Park
TTITLE13=Blood Stains On The Wall
EXTD=
EXTT0=
EXTT1=
EXTT2=
EXTT3=
EXTT4=
EXTT5=
EXTT6=
EXTT7=
EXTT8=
EXTT9=
EXTT10=
EXTT11=
EXTT12=
EXTT13=
PLAYORDER=
